<svg width="100" height="100" viewBox="0 0 100 100" fill="none" xmlns="http://www.w3.org/2000/svg">
<path d="M0 100V0H60V40C60 47.8793 58.4481 55.6815 55.4328 62.961C52.4175 70.2405 47.9979 76.8549 42.4264 82.4264C31.1742 93.6786 15.913 100 0 100H0Z" fill="#bbf7d0"/>
<path d="M79.804 37.957C84.2825 37.957 87.913 34.3265 87.913 29.848C87.913 25.3695 84.2825 21.739 79.804 21.739C75.3255 21.739 71.695 25.3695 71.695 29.848C71.695 34.3265 75.3255 37.957 79.804 37.957Z" fill="#bbf7d0"/>
<path d="M79.804 78.261C84.2825 78.261 87.913 74.6305 87.913 70.152C87.913 65.6735 84.2825 62.043 79.804 62.043C75.3255 62.043 71.695 65.6735 71.695 70.152C71.695 74.6305 75.3255 78.261 79.804 78.261Z" fill="#bbf7d0"/>
</svg>
